<svg width="20" height="20" viewBox="0 0 20 20" fill="none" xmlns="http://www.w3.org/2000/svg">
<path d="M5.18073 6.51575C6.98 6.51575 8.4386 5.05715 8.4386 3.25788C8.4386 1.4586 6.98 0 5.18073 0C3.38145 0 1.92285 1.4586 1.92285 3.25788C1.92285 5.05715 3.38145 6.51575 5.18073 6.51575Z" fill="white"/>
<path d="M19.6869 14.6509L16.67 7.59534C16.1206 6.30376 15.3013 5.57122 14.3664 5.52302C13.4411 5.47483 12.5447 6.12062 11.8603 7.35437L10.029 10.6412C9.64343 11.3351 9.09402 11.7496 8.49643 11.7978C7.88919 11.8556 7.28195 11.5376 6.79038 10.911L6.57833 10.6412C5.89398 9.78332 5.04578 9.36886 4.1783 9.45561C3.31081 9.54235 2.56863 10.14 2.07706 11.1135L0.40957 14.4388C-0.188029 15.6436 -0.130197 17.0412 0.573427 18.1786C1.27705 19.316 2.50116 20.0003 3.84094 20.0003H16.1399C17.4315 20.0003 18.6363 19.3545 19.3496 18.275C20.0821 17.1955 20.1978 15.8364 19.6869 14.6509Z" fill="white"/>
</svg>
