<svg width="19" height="16" viewBox="0 0 19 16" fill="none" xmlns="http://www.w3.org/2000/svg">
<path d="M16.0501 4.74133C16.0501 5.09133 16.0251 5.433 15.9834 5.758C15.6001 5.59133 15.1834 5.49967 14.7418 5.49967C13.7251 5.49967 12.8251 5.99133 12.2668 6.74133C11.7001 5.99133 10.8001 5.49967 9.78341 5.49967C8.07508 5.49967 6.69175 6.89133 6.69175 8.61633C6.69175 10.8497 7.87509 12.558 9.19175 13.7163C9.15009 13.7413 9.10843 13.7497 9.06676 13.7663C8.81676 13.858 8.40009 13.858 8.15009 13.7663C5.99175 13.0247 1.16675 9.958 1.16675 4.74133C1.16675 2.44133 3.01674 0.583008 5.30008 0.583008C6.65841 0.583008 7.85841 1.233 8.60841 2.24133C9.36674 1.233 10.5667 0.583008 11.9167 0.583008C14.2001 0.583008 16.0501 2.44133 16.0501 4.74133Z" stroke="white" stroke-linecap="round" stroke-linejoin="round"/>
<path d="M17.8333 8.61666C17.8333 12.5167 14.225 14.8167 12.6083 15.3667C12.4167 15.4333 12.1083 15.4333 11.9166 15.3667C11.225 15.1333 10.1667 14.575 9.19165 13.7167C7.87498 12.5583 6.69165 10.85 6.69165 8.61666C6.69165 6.89166 8.07498 5.5 9.78331 5.5C10.8 5.5 11.7 5.99166 12.2667 6.74166C12.825 5.99166 13.725 5.5 14.7417 5.5C15.1833 5.5 15.6 5.59166 15.9833 5.75833C17.075 6.24166 17.8333 7.33333 17.8333 8.61666Z" stroke="white" stroke-linecap="round" stroke-linejoin="round"/>
</svg>
