<svg width="18" height="19" viewBox="0 0 18 19" fill="none" xmlns="http://www.w3.org/2000/svg">
<path d="M16.7323 11.9087C13.9728 11.0238 11.2657 10.9863 8.50619 11.6537C8.4687 11.5787 8.43119 11.5037 8.4012 11.4212C7.84629 9.89899 7.29139 8.36925 6.72898 6.847C6.66149 6.65953 6.66145 6.55452 6.87141 6.44954C9.27103 5.24224 11.2282 3.53248 12.6755 1.26035C12.7055 1.21536 12.7355 1.17788 12.803 1.08789C14.1078 4.70231 15.4051 8.27927 16.7323 11.9087Z" fill="white"/>
<path d="M6.24144 6.74902C6.85634 8.42875 7.4637 10.101 8.0786 11.8032C7.59118 11.9832 7.14126 12.1556 6.67633 12.3206C5.679 12.6805 4.68166 13.048 3.68432 13.408C2.22956 13.9404 0.692351 13.243 0.167436 11.8182C-0.34998 10.4084 0.369852 8.88618 1.80212 8.34627C3.1894 7.82885 4.58422 7.3264 5.979 6.81649C6.05399 6.79399 6.13645 6.77902 6.24144 6.74902Z" fill="white"/>
<path d="M3.96924 13.7611C4.89909 13.4236 5.77646 13.1011 6.69881 12.7637C7.29121 14.3909 7.87611 16.0032 8.47602 17.6454C7.78613 17.8854 7.1412 18.1479 6.47381 18.3428C6.06137 18.4628 5.62648 18.2453 5.4765 17.8479C4.95909 16.5056 4.47916 15.1558 3.96924 13.7611Z" fill="white"/>
<path d="M17.482 12.4485C17.4295 12.3735 17.317 12.261 17.272 12.1335C16.8521 11.0087 16.4471 9.87632 16.0347 8.74401C15.0449 6.02944 14.0626 3.3224 13.0727 0.607839C12.9378 0.240398 12.9678 0.157919 13.2752 0.0529359C13.5752 -0.0520471 13.6352 -0.0220483 13.7627 0.337894C14.805 3.20993 15.8473 6.08196 16.8971 8.95399C17.2495 9.92134 17.602 10.8962 17.9544 11.8635C18.0819 12.2235 17.9469 12.4335 17.482 12.4485Z" fill="white"/>
<path d="M16.7096 7.19193C16.4022 6.35207 16.1098 5.54217 15.8098 4.7248C16.3872 4.55233 17.0396 4.88977 17.3021 5.47468C17.5795 6.10458 17.347 6.83199 16.7096 7.19193Z" fill="white"/>
<path d="M8.22107 12.208C8.36355 12.5979 8.49098 12.9579 8.64096 13.3629C8.27352 13.4978 7.91358 13.6253 7.52364 13.7753C7.38117 13.3854 7.24624 13.0179 7.10376 12.6205C7.4862 12.478 7.83863 12.3505 8.22107 12.208Z" fill="white"/>
</svg>
