<svg width="21" height="20" viewBox="0 0 21 20" fill="none" xmlns="http://www.w3.org/2000/svg">
<path d="M17.4666 10.6086C17.1582 10.6086 16.8999 10.3753 16.8666 10.067C16.6666 8.23364 15.6832 6.58364 14.1666 5.53364C13.8916 5.34197 13.8249 4.96697 14.0166 4.69197C14.2082 4.41697 14.5832 4.3503 14.8582 4.54197C16.6666 5.8003 17.8332 7.76697 18.0749 9.94197C18.1082 10.2753 17.8666 10.5753 17.5332 10.6086C17.5082 10.6086 17.4916 10.6086 17.4666 10.6086Z" fill="white"/>
<path d="M3.61674 10.6497C3.60008 10.6497 3.57508 10.6497 3.55841 10.6497C3.22508 10.6163 2.98341 10.3163 3.01674 9.98301C3.24174 7.80801 4.39174 5.84135 6.18341 4.57468C6.45008 4.38301 6.83341 4.44968 7.02508 4.71635C7.21674 4.99135 7.15008 5.36635 6.88341 5.55801C5.38341 6.62468 4.40841 8.27468 4.22508 10.0997C4.19174 10.4163 3.92508 10.6497 3.61674 10.6497Z" fill="white"/>
<path d="M13.8251 17.583C12.8001 18.0746 11.7001 18.3246 10.5501 18.3246C9.35008 18.3246 8.20842 18.058 7.14175 17.5163C6.84175 17.3746 6.72508 17.008 6.87508 16.708C7.01675 16.408 7.38342 16.2913 7.68342 16.433C8.20842 16.6996 8.76675 16.883 9.33342 16.9913C10.1001 17.1413 10.8834 17.1496 11.6501 17.0163C12.2168 16.9163 12.7751 16.7413 13.2918 16.4913C13.6001 16.3496 13.9668 16.4663 14.1001 16.7746C14.2501 17.0746 14.1334 17.4413 13.8251 17.583Z" fill="white"/>
<path d="M10.5417 1.6748C9.24998 1.6748 8.19165 2.7248 8.19165 4.0248C8.19165 5.3248 9.24165 6.3748 10.5417 6.3748C11.8417 6.3748 12.8917 5.3248 12.8917 4.0248C12.8917 2.7248 11.8417 1.6748 10.5417 1.6748Z" fill="white"/>
<path d="M4.7084 11.5586C3.41673 11.5586 2.3584 12.6086 2.3584 13.9086C2.3584 15.2086 3.4084 16.2586 4.7084 16.2586C6.0084 16.2586 7.0584 15.2086 7.0584 13.9086C7.0584 12.6086 6.00007 11.5586 4.7084 11.5586Z" fill="white"/>
<path d="M16.2917 11.5586C15 11.5586 13.9417 12.6086 13.9417 13.9086C13.9417 15.2086 14.9917 16.2586 16.2917 16.2586C17.5917 16.2586 18.6417 15.2086 18.6417 13.9086C18.6417 12.6086 17.5917 11.5586 16.2917 11.5586Z" fill="white"/>
</svg>
